<?xml version="1.0" encoding="UTF-8" standalone="no"?>
<svg
   xmlns:dc="http://purl.org/dc/elements/1.1/"
   xmlns:cc="http://creativecommons.org/ns#"
   xmlns:rdf="http://www.w3.org/1999/02/22-rdf-syntax-ns#"
   xmlns:svg="http://www.w3.org/2000/svg"
   xmlns="http://www.w3.org/2000/svg"
   viewBox="0 0 1440 1440"
   height="1440"
   width="1440"
   xml:space="preserve"
   id="svg2"
   version="1.1"><metadata
     id="metadata8"><rdf:RDF><cc:Work
         rdf:about=""><dc:format>image/svg+xml</dc:format><dc:type
           rdf:resource="http://purl.org/dc/dcmitype/StillImage" /></cc:Work></rdf:RDF></metadata><defs
     id="defs6"><clipPath
       id="clipPath18"
       clipPathUnits="userSpaceOnUse"><path
         id="path16"
         d="M 0,1080 H 1080 V 0 H 0 Z" /></clipPath></defs><g
     transform="matrix(1.3333333,0,0,-1.3333333,0,1440)"
     id="g10"><g
       id="g12"><g
         clip-path="url(#clipPath18)"
         id="g14"><g
           transform="translate(311.4126,707.7349)"
           id="g20"><path
             id="path22"
             style="fill:#03ac51;fill-opacity:1;fill-rule:nonzero;stroke:none"
             d="m 0,0 c -6.272,-29.959 -12.483,-59.678 -18.777,-89.549 1.97,0.382 3.231,1.371 4.532,2.216 3.344,2.173 6.649,4.406 9.929,6.672 11.779,8.14 24.874,12.884 39.021,14.468 11.331,1.27 22.481,0.049 32.99,-4.733 14.802,-6.735 22.915,-18.319 24.718,-34.441 0.732,-6.546 0.164,-13.036 -0.512,-19.523 -1.453,-13.967 -4.734,-27.596 -7.881,-41.241 -1.9,-8.237 -3.403,-16.551 -5.14,-24.818 -1.837,-8.74 -3.898,-17.433 -5.814,-26.157 -2.174,-9.902 -4.329,-19.81 -6.419,-29.729 -0.546,-2.594 -0.859,-5.24 -1.202,-7.872 -0.115,-0.886 -0.5,-1.301 -1.355,-1.323 -0.725,-0.018 -1.45,-0.02 -2.176,-0.02 -14.511,-10e-4 -29.022,-10e-4 -43.534,-10e-4 -0.604,0 -1.21,-0.016 -1.813,0.011 -1.434,0.065 -1.624,0.292 -1.485,1.755 0.445,4.702 1.445,9.316 2.577,13.879 3.053,12.311 5.308,24.783 7.808,37.206 0.953,4.736 2.068,9.427 3.408,14.072 2.314,8.018 3.653,16.253 5.109,24.45 1.375,7.733 3.197,15.363 4.887,23.023 0.963,4.366 1.859,8.744 2.402,13.177 0.485,3.962 0.588,7.936 -0.294,11.895 -1.47,6.593 -5.42,10.986 -11.758,13.084 -7.12,2.358 -14.264,2.201 -21.302,-0.509 -5.37,-2.068 -10.081,-5.236 -14.396,-8.962 -5.134,-4.434 -9.786,-9.338 -13.798,-14.839 -3.452,-4.732 -6.165,-9.853 -7.839,-15.436 -3.64,-12.136 -7.484,-24.224 -9.928,-36.684 -1.487,-7.581 -2.882,-15.18 -4.408,-22.753 -1.835,-9.112 -3.775,-18.202 -5.65,-27.307 -1.583,-7.683 -3.136,-15.374 -4.71,-23.059 -0.145,-0.708 -0.325,-1.41 -0.531,-2.103 -0.149,-0.498 -0.517,-0.814 -1.047,-0.851 -0.602,-0.043 -1.208,-0.046 -1.812,-0.047 -14.995,-0.002 -29.99,-0.002 -44.985,0.002 -0.604,0 -1.218,-0.012 -1.807,0.094 -0.309,0.057 -0.676,0.28 -0.619,0.744 0.074,0.595 0.11,1.2 0.233,1.786 4.92,23.388 9.867,46.771 14.769,70.164 5.693,27.174 11.33,54.36 17.024,81.534 4.232,20.202 8.526,40.392 12.777,60.59 2.685,12.759 5.341,25.523 8.008,38.285 0.073,0.355 0.104,0.719 0.187,1.072 0.384,1.64 0.55,1.787 2.134,1.85 0.603,0.024 1.208,0.007 1.813,0.007 14.27,0.009 28.539,0.021 42.808,0.024 C -2.664,0.103 -1.469,0.041 0,0" /></g><g
           transform="translate(454.6299,559.8672)"
           id="g24"><path
             id="path26"
             style="fill:#03ac51;fill-opacity:1;fill-rule:nonzero;stroke:none"
             d="m 0,0 h 3.43 c 23.462,0 46.923,0 70.384,0 0.847,0.001 1.693,0.016 2.54,0.022 0.917,0.007 1.256,0.54 1.257,1.38 0.003,3.263 0.005,6.526 0.007,9.788 0.002,2.789 -0.251,5.55 -0.895,8.269 C 74.045,30.761 67.824,39.281 56.815,43.566 46.47,47.592 36.168,46.7 26.249,41.862 20.255,38.938 15.562,34.43 11.678,29.064 5.776,20.909 2.288,11.69 -0.164,2.022 -0.309,1.45 -0.458,0.852 0,0 m 114.159,-58.094 c -0.109,-1.924 -0.94,-3.393 -1.648,-4.896 -2.178,-4.622 -5.119,-8.758 -8.315,-12.708 -5.795,-7.165 -12.292,-13.644 -19.462,-19.438 -7.44,-6.012 -15.979,-9.923 -25.008,-12.822 -9.38,-3.012 -19.002,-4.622 -28.877,-4.538 -4.952,0.042 -9.89,-0.026 -14.835,0.655 -9.942,1.369 -19.222,4.619 -28.08,9.21 -3.761,1.95 -7.336,4.203 -10.711,6.769 -4.354,3.31 -8.153,7.151 -11.549,11.452 -5.11,6.472 -9.765,13.199 -13.108,20.778 -2.948,6.682 -4.787,13.649 -5.721,20.88 -1.307,10.111 -1.503,20.251 -0.484,30.377 1.219,12.106 4.576,23.67 9.531,34.781 3.905,8.758 8.653,17.019 14.737,24.442 13.646,16.65 31.019,27.352 51.988,32.256 11.152,2.608 22.459,3.466 33.853,2.742 10.716,-0.68 20.992,-3.226 30.535,-8.324 13.3,-7.105 22.755,-17.771 28.885,-31.428 4.344,-9.678 6.595,-19.885 7.482,-30.447 0.935,-11.138 0.214,-22.209 -0.956,-33.271 -0.253,-2.397 -0.754,-4.771 -1.558,-7.061 -0.573,-1.633 -1.528,-2.697 -3.472,-2.48 -0.955,0.106 -1.933,0.018 -2.9,0.018 -38.571,0 -77.143,0.005 -115.714,-0.009 -4.956,-0.002 -4.446,0.646 -4.489,-4.408 -0.048,-5.603 0.63,-11.091 2.655,-16.351 3.508,-9.109 9.248,-16.343 17.918,-21.064 4.901,-2.669 10.173,-3.668 15.729,-3.482 12.85,0.432 23.24,5.877 31.618,15.416 1.591,1.812 2.997,3.787 4.467,5.704 0.735,0.958 1.433,1.945 2.123,2.937 0.688,0.988 1.528,1.366 2.784,1.156 4.289,-0.716 8.598,-1.308 12.893,-1.986 8.471,-1.338 16.94,-2.698 25.408,-4.062 1.418,-0.228 2.826,-0.525 4.281,-0.798" /></g><g
           transform="translate(124.3472,447.3838)"
           id="g28"><path
             id="path30"
             style="fill:#03ac51;fill-opacity:1;fill-rule:nonzero;stroke:none"
             d="m 0,0 c -13.091,-0.18 -25.416,1.271 -37.525,4.471 -3.622,0.957 -7.173,2.133 -10.675,3.471 -14.034,5.364 -24.911,14.615 -33.208,26.995 -3.368,5.026 -6.238,10.343 -8.301,16.055 -0.531,1.471 -1.101,2.952 -1.148,4.55 -0.015,0.522 0.209,0.965 0.751,1.071 1.422,0.279 2.852,0.527 4.284,0.754 10.261,1.628 20.525,3.245 30.787,4.87 3.222,0.51 6.457,0.955 9.659,1.575 1.839,0.355 2.955,-0.251 3.785,-1.866 1.16,-2.255 2.452,-4.44 3.667,-6.667 5.647,-10.353 14.306,-16.428 25.949,-18.284 6.115,-0.974 12.265,-1.357 18.429,-0.712 7.079,0.741 13.635,3.102 19.683,6.85 1.964,1.217 3.694,2.723 5.183,4.497 1.771,2.108 2.827,4.481 2.7,7.293 -0.017,0.362 -0.037,0.729 0.004,1.087 0.524,4.618 -1.703,7.869 -5.217,10.469 -2.048,1.515 -4.281,2.713 -6.595,3.772 -4.626,2.116 -9.446,3.696 -14.302,5.162 -13.549,4.092 -26.682,9.283 -39.646,14.915 -5.221,2.268 -10.17,5.049 -14.761,8.441 -9.888,7.306 -15.404,17.092 -16.76,29.284 -0.509,4.58 -0.712,9.133 -0.096,13.729 0.833,6.207 2.893,11.97 6.082,17.309 7.304,12.221 17.604,21.05 30.705,26.606 9.961,4.225 20.314,7.053 31.088,8.116 14.264,1.409 28.5,1.153 42.617,-1.551 8.1,-1.551 15.937,-3.96 23.228,-7.922 0.531,-0.289 1.082,-0.546 1.589,-0.871 11.677,-7.493 19.989,-17.712 24.822,-30.721 0.672,-1.81 1.122,-3.699 1.206,-5.649 0.062,-1.424 -0.131,-1.712 -1.482,-1.948 -4.166,-0.726 -8.334,-1.438 -12.503,-2.138 -9.65,-1.62 -19.301,-3.23 -28.951,-4.846 -0.358,-0.059 -0.713,-0.136 -1.072,-0.187 -2.244,-0.323 -2.314,-0.341 -2.966,1.946 -1.141,3.998 -3.548,7.085 -6.699,9.672 -5.832,4.789 -12.591,7.685 -19.907,9.114 -9.029,1.763 -18.048,1.29 -26.912,-1.261 -3.16,-0.91 -6.106,-2.3 -8.638,-4.449 -2.987,-2.535 -4.735,-5.71 -5.145,-9.652 -0.392,-3.768 0.778,-6.893 3.51,-9.467 2.138,-2.015 4.615,-3.534 7.337,-4.584 3.377,-1.303 6.794,-2.517 10.236,-3.639 12.744,-4.156 25.524,-8.202 38.254,-12.402 7.137,-2.355 13.911,-5.543 20.245,-9.616 9.241,-5.943 15.689,-14.232 20.077,-24.185 1.623,-3.682 2.34,-7.573 2.305,-11.64 C 85.628,62.737 85.613,57.674 84.542,52.671 81.75,39.626 74.864,29.097 64.737,20.602 54.156,11.727 41.86,6.304 28.554,3.003 18.991,0.631 9.268,-0.271 0,0" /></g><g
           transform="translate(663.5732,639.9888)"
           id="g32"><path
             id="path34"
             style="fill:#f49421;fill-opacity:1;fill-rule:nonzero;stroke:none"
             d="m 0,0 c -1.966,-2.473 -4.228,-4.643 -6.791,-6.482 -3.624,-2.599 -7.598,-4.175 -12.152,-3.942 -0.603,0.031 -1.208,0.004 -1.812,0.004 -0.362,0 -0.726,0.023 -1.087,-0.004 -5.832,-0.434 -10.352,2.066 -13.792,6.518 -6.785,8.782 -9.527,18.575 -6.754,29.559 2.291,9.073 6.523,17.09 13.195,23.743 1.475,1.471 3.106,2.736 4.891,3.785 h -0.017 c 0,0 0.072,0.04 0.198,0.105 0.24,0.138 0.473,0.287 0.718,0.417 2.012,1.061 4.123,1.785 6.424,1.793 1.945,0.284 4.156,0.357 6.488,-0.029 4.645,-0.309 8.625,-2.32 12.07,-5.556 C 7.414,44.433 10.317,37.565 10.647,29.635 11.117,18.337 6.9,8.677 0,0 m 26.705,27.693 c -0.083,4.48 -0.829,8.891 -2.164,13.178 -3.67,11.783 -10.849,20.607 -22.095,25.949 -2.74,1.301 -5.598,2.34 -8.662,2.4 -4.591,0.09 -9.185,0.027 -13.778,0.002 -0.72,-0.004 -1.443,-0.125 -2.156,-0.24 -5.485,-0.88 -10.359,-3.169 -14.787,-6.462 -5.703,-4.242 -10.278,-9.518 -13.934,-15.567 -5.666,-9.373 -9.142,-19.408 -8.793,-30.53 0.046,-1.448 -0.023,-2.9 0.018,-4.348 0.351,-12.789 5.605,-23.06 15.979,-30.587 6.391,-4.637 13.669,-6.569 21.512,-6.155 6.026,0.317 11.56,2.329 16.665,5.531 2.148,1.347 4.292,2.703 6.465,4.011 0.701,0.423 1.357,1.052 2.428,0.856 0.506,-1.962 -0.375,-3.767 -0.933,-5.548 -1.593,-5.083 -3.968,-9.84 -6.358,-14.588 -2.801,-5.567 -6.64,-10.354 -10.994,-14.757 -2.493,-2.521 -5.407,-4.41 -8.718,-5.725 -3.705,-1.47 -7.554,-1.818 -11.395,-1.116 -4.755,0.868 -8.358,3.633 -10.882,7.754 -2.114,3.453 -3.395,7.178 -3.679,11.244 -0.118,1.702 -0.365,1.917 -1.97,1.809 -3.012,-0.204 -6.023,-0.443 -9.025,-0.752 -6.441,-0.665 -5.705,0.028 -4.905,-6.086 0.849,-6.492 3.31,-12.346 7.476,-17.408 4.595,-5.586 10.352,-9.337 17.558,-10.721 4.566,-0.877 9.167,-0.802 13.712,-0.224 7.965,1.012 15.036,4.306 21.353,9.225 7.767,6.05 13.552,13.751 18.153,22.34 8.396,15.678 12.775,32.519 13.833,50.214 0.324,5.417 0.176,10.869 0.076,16.301" /></g><g
           transform="translate(639.2539,693.1699)"
           id="g36"><path
             id="path38"
             style="fill:#f49421;fill-opacity:1;fill-rule:nonzero;stroke:none"
             d="M 0,0 H 0.018 C 0.077,0.035 0.138,0.07 0.198,0.105 0.072,0.04 0,0 0,0" /></g><g
           transform="translate(759.5605,638.3442)"
           id="g40"><path
             id="path42"
             style="fill:#f49421;fill-opacity:1;fill-rule:nonzero;stroke:none"
             d="m 0,0 c -2.17,-2.474 -4.697,-4.527 -7.515,-6.211 -2.853,-1.706 -5.922,-2.696 -9.295,-2.566 -2.169,0.083 -4.345,-0.143 -6.509,0.265 -5.408,1.017 -9.5,4.081 -12.75,8.324 -3.628,4.734 -5.443,10.122 -5.661,16.124 -0.387,10.654 2.605,20.265 8.614,28.981 1.227,1.781 2.637,3.469 4.145,5.021 1.984,2.042 4.109,3.771 6.434,5.033 h -0.171 c 0,0 0.642,0.339 1.758,0.769 1.346,0.581 2.76,1.008 4.253,1.245 2.86,0.592 6.493,0.859 10.333,-0.067 0.079,-0.016 0.157,-0.027 0.235,-0.046 0.12,-0.03 0.233,-0.076 0.352,-0.107 0.43,-0.118 0.864,-0.248 1.298,-0.398 0.223,-0.077 0.445,-0.158 0.664,-0.243 0.836,-0.32 1.677,-0.697 2.517,-1.153 H -1.451 C -0.516,54.43 0.386,53.827 1.223,53.105 7.98,47.283 11.552,40.042 11.85,30.984 12.246,18.905 7.772,8.866 0,0 M 26.541,39.314 C 24.134,50.632 17.92,59.396 8.597,66.008 c -4.737,3.36 -10.061,5.164 -15.982,4.908 -2.171,-0.094 -4.35,-0.042 -6.525,-0.012 -4.783,0.068 -9.335,-0.962 -13.749,-2.75 -7.362,-2.982 -13.272,-7.87 -18.154,-14.01 -11.189,-14.071 -15.066,-30.1 -11.735,-47.645 2.33,-12.277 9.464,-21.32 20.943,-26.488 7.633,-3.437 15.633,-3.799 23.689,-1.279 4.989,1.56 9.695,3.691 13.895,6.856 0.769,0.58 1.598,1.086 2.423,1.588 0.505,0.307 1.091,0.656 1.649,0.213 0.443,-0.351 0.202,-0.89 0.079,-1.347 -0.251,-0.932 -0.5,-1.865 -0.784,-2.787 -1.715,-5.559 -4.262,-10.762 -6.863,-15.942 -2.233,-4.45 -4.983,-8.561 -8.344,-12.234 -5.617,-6.138 -12.252,-9.996 -20.937,-9.767 -5.366,0.142 -9.207,2.447 -11.897,6.932 -1.312,2.185 -2.267,4.536 -3.004,6.967 -0.56,1.846 -1.007,3.726 -1.519,5.587 -0.42,1.523 -0.646,1.673 -2.298,1.599 -0.362,-0.016 -0.724,-0.043 -1.084,-0.083 -3.833,-0.424 -7.619,-1.281 -11.507,-1.193 -0.919,0.021 -1.177,-0.686 -1.193,-1.476 -0.05,-2.554 0.32,-5.073 0.933,-7.53 3.045,-12.188 10.156,-20.609 22.558,-24.052 4.974,-1.379 10.063,-1.504 15.106,-0.842 9.63,1.264 17.929,5.489 25.063,12.034 9.187,8.426 15.457,18.792 19.963,30.282 6.02,15.352 8.416,31.403 8.931,45.119 -0.001,8.72 -0.449,14.719 -1.713,20.658" /></g><g
           transform="translate(736.8525,693.3154)"
           id="g44"><path
             id="path46"
             style="fill:#f49421;fill-opacity:1;fill-rule:nonzero;stroke:none"
             d="M 0,0 H 0.171 C 0.689,0.281 1.219,0.536 1.758,0.769 0.642,0.338 0,0 0,0" /></g><g
           transform="translate(753.7832,695.1089)"
           id="g48"><path
             id="path50"
             style="fill:#f49421;fill-opacity:1;fill-rule:nonzero;stroke:none"
             d="M 0,0 C 0.44,-0.118 0.873,-0.25 1.299,-0.397 0.864,-0.248 0.431,-0.117 0,0" /></g><g
           transform="translate(758.2627,693.3154)"
           id="g52"><path
             id="path54"
             style="fill:#f49421;fill-opacity:1;fill-rule:nonzero;stroke:none"
             d="M 0,0 C -0.84,0.456 -1.681,0.833 -2.518,1.153 -1.697,0.831 -0.913,0.439 -0.153,0 Z" /></g><g
           transform="translate(864.124,644.8101)"
           id="g56"><path
             id="path58"
             style="fill:#f49421;fill-opacity:1;fill-rule:nonzero;stroke:none"
             d="m 0,0 c 5.463,4.027 11.563,5.335 18.187,4.263 4.046,-0.656 7.528,-2.555 10.475,-5.387 4.535,-4.358 6.834,-9.838 7.994,-15.915 1.588,-8.311 -0.315,-16.065 -3.635,-23.601 -2.263,-5.137 -5.425,-9.688 -9.302,-13.737 -2.105,-2.199 -4.531,-3.993 -7.244,-5.378 -2.508,-1.279 -5.134,-2.104 -7.995,-2.008 -0.966,0.033 -1.937,0.05 -2.901,-0.006 -2.627,-0.153 -5.043,0.584 -7.287,1.829 -5.89,3.266 -10.249,8.006 -13.137,14.071 -0.995,2.09 -1.469,4.334 -1.437,6.672 0.025,1.812 0.005,3.625 0.005,5.888 0.1,2.681 -0.173,5.817 0.482,8.94 0.399,1.901 0.844,3.768 1.545,5.569 2.965,7.615 7.644,13.93 14.25,18.8 m 59.643,32.574 c -0.358,2.504 -0.687,5.034 -1.337,7.472 -2.734,10.24 -8.64,17.937 -18.395,22.475 -2.665,1.24 -5.399,2.015 -8.381,1.933 C 28.391,64.367 25.245,64.415 22.103,64.437 19.301,64.456 16.58,63.975 13.885,63.261 7.553,61.585 2.134,58.288 -2.692,53.947 -8.866,48.394 -13.8,41.859 -17.784,34.608 -28.11,15.814 -33.41,-4.264 -33.074,-25.76 c 0,-2.296 0.032,-4.592 -0.008,-6.886 -0.071,-4.136 0.519,-8.191 1.526,-12.182 1.712,-6.776 4.681,-12.937 9.357,-18.184 7.029,-7.888 15.891,-11.926 26.421,-12.512 10.747,-0.599 20.393,2.434 28.634,9.209 13.139,10.802 19.904,24.901 20.529,41.902 0.097,2.654 -10e-4,5.315 0.023,7.973 0.022,2.429 -0.252,4.821 -0.827,7.178 C 46.62,15.175 19.558,25.357 -0.341,13.467 -2.621,12.104 -4.857,10.668 -7.13,9.291 -7.845,8.857 -8.593,8.465 -9.359,8.132 c -0.434,-0.189 -0.719,0.242 -0.699,0.554 0.049,0.717 0.167,1.447 0.386,2.131 3.301,10.312 7.855,20 14.534,28.587 2.304,2.962 4.953,5.615 8.112,7.711 0.626,0.415 1.263,0.787 1.911,1.126 h -0.007 c 0,0 7.984,4.709 16.546,1.337 1.269,-0.412 2.441,-1.08 3.539,-1.949 1.522,-1.206 2.828,-2.625 3.929,-4.235 2.504,-3.664 4.003,-7.683 4.427,-12.109 0.142,-1.472 0.413,-1.751 1.776,-1.66 4.339,0.288 8.675,0.626 13.006,1.003 1.311,0.115 1.733,0.612 1.542,1.946" /></g><g
           transform="translate(633.8018,553.6255)"
           id="g60"><path
             id="path62"
             style="fill:#f49421;fill-opacity:1;fill-rule:nonzero;stroke:none"
             d="m 0,0 v -0.034 c -0.604,0 -1.209,0 -1.813,0 -6.528,-0.009 -13.054,-0.003 -19.582,-0.035 -2.459,-0.012 -2.461,-0.052 -3.062,-2.544 -0.085,-0.352 -0.151,-0.708 -0.227,-1.062 -1.63,-7.67 -3.268,-15.339 -4.89,-23.01 -0.6,-2.833 -1.206,-5.665 -1.735,-8.512 -0.441,-2.386 -0.275,-2.554 1.988,-2.624 0.724,-0.022 1.45,-0.008 2.175,-0.008 9.307,-0.005 18.615,0.033 27.921,-0.04 3.518,-0.027 7.011,0.166 10.477,0.68 4.451,0.661 8.733,1.922 12.547,4.399 7.462,4.849 10.934,11.802 10.211,20.617 -0.453,5.508 -3.599,9.344 -8.709,11.502 -1.713,0.723 -3.547,0.664 -5.358,0.667 C 13.296,0.007 6.647,0 0,0 m -34.805,-51.028 c -0.773,-3.68 -1.516,-7.095 -2.204,-10.52 -2.473,-12.308 -4.929,-24.62 -7.392,-36.931 -0.095,-0.473 -0.205,-0.943 -0.328,-1.409 -0.205,-0.777 -0.646,-1.256 -1.519,-1.253 -4.353,0.016 -8.705,0.013 -13.058,0.031 -0.742,0.004 -1.089,0.456 -0.988,1.169 0.118,0.834 0.297,1.661 0.471,2.486 5.342,25.4 10.689,50.798 16.029,76.199 2.211,10.514 4.481,21.017 6.565,31.556 0.646,3.263 1.277,2.966 3.842,2.969 1.573,10e-4 3.145,0.004 4.717,0.005 12.215,0.01 24.43,-0.024 36.644,0.049 5.086,0.031 10.155,-0.213 15.216,-0.59 3.253,-0.242 6.456,-0.878 9.567,-1.912 9.26,-3.077 15.718,-11.935 15.775,-21.67 0.015,-2.538 -0.068,-5.078 0.016,-7.613 0.221,-6.665 -2.284,-12.263 -6.667,-17.103 -4.115,-4.543 -9.048,-7.977 -14.688,-10.385 -5.038,-2.152 -10.26,-3.548 -15.74,-3.722 -0.39,-0.753 0.121,-1.168 0.523,-1.579 0.845,-0.864 1.69,-1.734 2.598,-2.529 3.676,-3.217 6.687,-6.971 9.127,-11.188 1.451,-2.508 2.978,-4.985 4.244,-7.586 3.915,-8.038 7.455,-16.243 10.562,-24.63 0.377,-1.017 0.703,-2.055 0.989,-3.1 0.097,-0.351 -0.118,-0.711 -0.524,-0.782 -0.472,-0.082 -0.957,-0.121 -1.437,-0.122 -4.354,-0.009 -8.708,-0.024 -13.061,0.005 -2.053,0.014 -2.071,0.05 -2.739,2.121 -3.194,9.898 -7.158,19.492 -11.559,28.905 -1.277,2.731 -2.726,5.39 -4.239,7.999 -1.963,3.388 -4.529,6.251 -7.891,8.35 -2.507,1.565 -5.225,2.69 -8.154,2.736 -8.09,0.127 -16.184,0.044 -24.697,0.044" /></g><g
           transform="translate(801.4238,465.8418)"
           id="g64"><path
             id="path66"
             style="fill:#f49421;fill-opacity:1;fill-rule:nonzero;stroke:none"
             d="m 0,0 c 0.477,-0.091 0.941,-0.257 1.405,-0.256 8.584,0.019 17.174,-0.133 25.749,0.159 5.675,0.195 11.263,1.319 16.61,3.402 5.868,2.286 10.937,5.717 14.807,10.691 11.77,15.125 15.924,32.254 13.061,51.112 -0.64,4.211 -2.244,8.123 -4.612,11.714 -2.982,4.52 -6.987,7.646 -12.205,9.126 -3.258,0.924 -6.592,1.469 -9.989,1.617 -8.098,0.351 -16.199,0.176 -24.3,0.176 -0.482,0 -0.966,-0.025 -1.448,-0.063 -0.516,-0.04 -0.915,-0.286 -1.09,-0.789 C 17.792,86.32 17.584,85.749 17.462,85.161 15.697,76.654 13.97,68.139 12.188,59.635 8.451,41.8 4.669,23.974 0.965,6.132 0.553,4.146 -0.224,2.193 0,0 m -18.175,-12.972 c -0.341,1.182 0.032,2.338 0.274,3.497 5.259,25.285 10.52,50.569 15.788,75.851 2.19,10.514 4.397,21.025 6.602,31.537 0.123,0.59 0.336,1.164 0.433,1.758 0.165,1.014 0.761,1.44 1.746,1.433 0.726,-0.005 1.45,0.01 2.176,0.01 11.727,-0.009 23.455,0.002 35.181,-0.036 4.973,-0.017 9.876,-0.635 14.676,-1.982 C 75.001,94.522 86.314,80.871 87.804,64.014 88.725,53.583 88.205,43.244 85.507,33.105 82.199,20.676 76.026,9.902 66.306,1.321 57.749,-6.233 47.729,-10.68 36.512,-12.597 c -3.475,-0.593 -6.96,-0.799 -10.466,-0.799 -13.783,-10e-4 -27.566,0.018 -41.349,0.046 -0.947,0.002 -1.938,-0.201 -2.872,0.378" /></g><g
           transform="translate(991.3926,555.5684)"
           id="g68"><path
             id="path70"
             style="fill:#f49421;fill-opacity:1;fill-rule:nonzero;stroke:none"
             d="m 0,0 c -1.437,0 -2.404,-0.006 -3.371,0.001 -7.006,0.052 -13.3,-2.157 -19.02,-6.083 -4.019,-2.758 -7.476,-6.135 -10.364,-10.058 -9.141,-12.419 -13.284,-26.396 -12.974,-41.761 0.085,-4.268 0.798,-8.415 2.16,-12.442 4.113,-12.171 14.086,-20.633 28.458,-21.68 9.504,-0.693 18.195,2.047 25.979,7.437 9.629,6.667 15.659,15.94 18.961,27.07 2.15,7.246 2.847,14.68 2.765,22.205 -0.101,9.136 -2.933,17.345 -8.628,24.478 C 19.7,-5.491 14.317,-1.771 7.482,-0.368 4.838,0.175 2.181,-0.11 0,0 m 48.118,-40.339 c 0.425,-7.82 -1.374,-17.008 -5.211,-25.764 -6.093,-13.904 -15.426,-25.027 -28.77,-32.53 -7.612,-4.278 -15.795,-6.604 -24.582,-6.477 -3.859,0.055 -7.712,-0.189 -11.576,0.421 -9.943,1.568 -18.198,6.237 -25.147,13.34 -6.31,6.452 -10.498,14.114 -12.575,22.899 -0.611,2.584 -1.071,5.206 -1.081,7.879 -0.02,5.797 -0.171,11.592 0.654,17.364 2.484,17.386 9.556,32.347 23.339,43.649 8.012,6.57 17.216,10.537 27.536,12.009 5.432,0.776 10.861,0.818 16.276,0.464 6.226,-0.406 12.085,-2.353 17.421,-5.625 12.414,-7.612 20.027,-18.585 22.922,-32.866 0.875,-4.315 0.688,-8.654 0.794,-14.763" /></g><g
           transform="translate(746.0254,551.2954)"
           id="g72"><path
             id="path74"
             style="fill:#f49421;fill-opacity:1;fill-rule:nonzero;stroke:none"
             d="m 0,0 c -1.524,-1.764 -2.321,-3.801 -3.314,-5.693 -7.574,-14.425 -14.696,-29.091 -23.18,-43.026 -0.815,-1.338 -1.498,-2.758 -2.204,-4.157 -0.309,-0.612 0.075,-1.173 0.802,-1.238 0.481,-0.042 0.966,-0.047 1.449,-0.049 10.392,-0.029 20.785,-0.058 31.177,-0.082 0.603,-0.001 1.21,0.007 1.808,0.073 0.673,0.074 1.114,0.478 1.101,1.172 -0.017,0.842 -0.097,1.689 -0.208,2.525 -0.591,4.425 -1.204,8.846 -1.803,13.268 -0.873,6.456 -1.734,12.912 -2.612,19.366 C 2.251,-12.223 1.478,-6.606 0.677,-0.994 0.635,-0.697 0.31,-0.44 0,0 m -71.216,-98.857 c 2.168,3.919 3.909,7.208 5.78,10.422 5.225,8.977 10.569,17.885 15.739,26.893 3.546,6.177 6.996,12.417 10.286,18.733 6.807,13.072 14.064,25.892 21.466,38.632 2.971,5.115 6.109,10.135 9.186,15.189 0.566,0.927 1.247,1.784 1.806,2.715 0.825,1.376 1.954,1.968 3.598,1.934 3.987,-0.082 7.979,-0.088 11.967,-0.002 1.907,0.041 2.858,-0.841 3.438,-2.54 0.941,-2.762 1.414,-5.619 1.857,-8.477 0.739,-4.77 1.305,-9.568 2.032,-14.34 0.838,-5.487 1.77,-10.961 2.665,-16.438 1.617,-9.885 3.196,-19.776 4.868,-29.651 1.51,-8.922 3.12,-17.829 4.694,-26.741 0.861,-4.874 1.754,-9.744 2.063,-14.695 0.076,-1.223 -0.204,-1.605 -1.362,-1.612 -4.11,-0.028 -8.221,0 -12.331,0.002 -0.883,0 -1.329,0.531 -1.464,1.305 -0.391,2.259 -0.741,4.526 -1.095,6.79 -1.195,7.631 -2.373,15.264 -3.583,22.892 -0.27,1.7 -0.361,1.769 -2.074,1.794 -2.779,0.038 -5.56,0.014 -8.341,0.015 -10.76,0.003 -21.52,0.006 -32.28,0.008 -0.846,0 -1.695,-0.048 -2.538,0.005 -1.119,0.07 -1.746,-0.441 -2.258,-1.414 -1.576,-2.991 -3.245,-5.933 -4.869,-8.898 -3.538,-6.462 -7.069,-12.926 -10.604,-19.39 -0.348,-0.636 -0.699,-1.27 -1.047,-1.905 -0.441,-0.802 -1.071,-1.238 -2.033,-1.235 -4.948,0.019 -9.895,0.009 -15.566,0.009" /></g><g
           transform="translate(979.0742,683.1079)"
           id="g76"><path
             id="path78"
             style="fill:#f49421;fill-opacity:1;fill-rule:nonzero;stroke:none"
             d="m 0,0 c -0.546,-2.932 -0.982,-5.274 -1.451,-7.791 1.702,0.288 2.515,1.412 3.476,2.27 1.983,1.773 3.926,3.588 6.216,4.975 5.142,3.112 10.542,3.289 15.986,1.076 3.478,-1.414 6.106,-3.862 7.275,-7.602 0.14,-0.446 0.419,-0.848 0.639,-1.281 1.468,0.286 2.415,1.222 3.38,2.107 0.889,0.817 1.716,1.703 2.609,2.516 5.281,4.805 11.493,6.397 18.464,5.247 2.295,-0.379 4.403,-1.279 6.274,-2.673 3.027,-2.257 4.361,-5.359 4.528,-9.063 0.226,-4.989 -0.537,-9.881 -1.481,-14.741 -2.097,-10.783 -4.753,-21.442 -7.292,-32.126 -0.111,-0.469 -0.309,-0.92 -0.396,-1.393 -0.196,-1.046 -0.905,-1.328 -1.84,-1.328 -2.056,-10e-4 -4.112,-0.034 -6.166,0 -2.176,0.036 -2.46,0.376 -2.064,2.649 0.498,2.852 1.016,5.704 1.649,8.529 1.369,6.122 2.875,12.214 4.214,18.342 0.9,4.125 1.705,8.276 2.364,12.445 0.318,2.011 0.205,4.092 0.282,6.141 0.056,1.48 -0.672,2.567 -1.87,3.296 -0.814,0.494 -1.713,1.001 -2.631,1.144 -5.011,0.783 -9.623,-0.093 -13.516,-3.593 -2.557,-2.3 -4.41,-5.11 -5.91,-8.171 -2.03,-4.144 -3.464,-8.509 -4.374,-13.012 -1.314,-6.504 -2.447,-13.045 -3.623,-19.576 -0.387,-2.145 -0.843,-4.264 -1.663,-6.288 -0.502,-1.24 -1.417,-1.914 -2.791,-1.905 -2.176,0.014 -4.351,-0.006 -6.525,0.043 -0.902,0.02 -1.305,0.518 -1.18,1.425 0.574,4.188 1.388,8.329 2.383,12.44 1.957,8.092 4.262,16.104 5.74,24.307 0.471,2.609 0.861,5.248 1.043,7.89 0.235,3.44 -2.275,6.302 -5.733,6.633 -4.528,0.434 -8.625,-0.652 -12.092,-3.744 -2.474,-2.206 -4.327,-4.864 -5.816,-7.795 -2.476,-4.877 -4.043,-10.071 -5.317,-15.362 -1.782,-7.396 -2.983,-14.906 -4.381,-22.378 -0.643,-3.441 -0.615,-3.545 -4.123,-3.433 -2.105,0.067 -4.302,-0.651 -6.319,0.527 0.002,2.056 0.578,4.02 0.976,6.011 3.027,15.145 6.061,30.289 9.089,45.433 0.426,2.13 0.835,4.263 1.253,6.393 0.151,0.773 0.513,1.398 1.383,1.406 C -6.326,0.016 -3.321,0 0,0" /></g><g
           transform="translate(890.7246,452.8984)"
           id="g80"><path
             id="path82"
             style="fill:#f49421;fill-opacity:1;fill-rule:nonzero;stroke:none"
             d="m 0,0 c -0.214,0.853 0.018,1.669 0.191,2.492 5.408,25.612 10.82,51.223 16.214,76.837 2.238,10.624 4.436,21.255 6.649,31.884 0.098,0.473 0.15,0.955 0.265,1.423 0.232,0.946 0.853,1.395 1.828,1.393 2.78,-0.004 5.559,0.012 8.338,0.003 1.329,-0.004 2.66,-0.015 3.985,-0.089 0.526,-0.029 0.874,-0.441 0.87,-0.972 -0.005,-0.599 -0.08,-1.207 -0.201,-1.795 C 34.955,95.698 31.759,80.223 28.571,64.746 25.285,48.795 22.002,32.843 18.726,16.891 17.73,12.046 16.765,7.195 15.776,2.35 15.656,1.76 15.504,1.175 15.335,0.598 15.149,-0.037 14.731,-0.373 14.043,-0.446 11.948,-0.668 1.773,-0.367 0,0" /></g><g
           transform="translate(956.041,684.0376)"
           id="g84"><path
             id="path86"
             style="fill:#f49421;fill-opacity:1;fill-rule:nonzero;stroke:none"
             d="M 0,0 C 3.417,-0.607 6.944,0.183 10.386,-0.471 10.694,-1.936 10.18,-3.222 9.908,-4.479 8.967,-8.831 9.765,-8.182 5.416,-8.317 3.483,-8.378 1.548,-8.385 -0.384,-8.46 c -1.698,-0.066 -2.052,-0.334 -2.431,-2.056 -0.806,-3.653 -1.56,-7.319 -2.317,-10.983 -2.468,-11.936 -4.899,-23.88 -7.407,-35.809 -0.728,-3.457 -0.435,-3.3 -3.892,-3.359 -1.692,-0.03 -3.384,-0.069 -5.077,-0.043 -1.795,0.026 -2.062,0.385 -1.679,2.245 3.161,15.366 6.333,30.73 9.505,46.094 0.122,0.59 0.309,1.169 0.408,1.763 0.26,1.576 -0.055,2.007 -1.577,2.062 -1.811,0.066 -3.627,0.042 -5.437,0.113 -0.958,0.037 -1.3,0.464 -1.144,1.399 0.259,1.547 0.541,3.093 0.891,4.621 0.328,1.435 0.375,1.459 1.993,1.493 2.055,0.043 4.11,0.028 6.165,0.044 0.836,0.006 1.313,0.404 1.473,1.254 0.425,2.253 0.902,4.496 1.338,6.747 0.526,2.728 1.087,5.442 2.115,8.04 2.037,5.143 5.766,7.809 11.34,8.05 4.383,0.189 8.68,-0.373 12.98,-1.035 0.832,-0.127 1.175,-0.656 1.048,-1.577 C 17.812,19.887 17.607,19.187 17.49,18.473 16.396,11.829 17.136,12.912 10.665,14.02 4.745,15.033 2.38,12.691 1.309,8.192 0.945,6.667 0.477,5.166 0.128,3.637 -0.135,2.484 -0.495,1.314 0,0" /></g><g
           transform="translate(692.8184,402.3076)"
           id="g88"><path
             id="path90"
             style="fill:#03ac51;fill-opacity:1;fill-rule:nonzero;stroke:none"
             d="m 0,0 c -1.244,-0.009 -2.179,-0.229 -3.03,-0.693 -1.305,-0.713 -1.674,-2.077 -0.95,-3.342 0.726,-1.272 1.793,-2.236 2.884,-3.176 0.29,-0.25 0.655,-0.313 0.977,-0.102 0.999,0.655 2.079,1.231 2.946,2.034 1.825,1.69 1.344,3.871 -0.999,4.8 C 1.169,-0.217 0.446,-0.113 0,0 m -3.337,-26.58 c 2.847,0.067 4.941,0.892 6.866,2.185 0.45,0.303 0.596,0.791 0.197,1.213 -2.307,2.437 -4.629,4.859 -6.969,7.263 -0.342,0.353 -0.846,0.48 -1.326,0.267 -2.039,-0.902 -3.717,-2.204 -4.498,-4.378 -0.782,-2.174 0.054,-4.389 2.08,-5.556 1.273,-0.734 2.664,-1.065 3.65,-0.994 m -5.133,15.739 c -1.133,1.675 -2.192,2.991 -2.98,4.454 -1.857,3.449 -1.086,6.576 2.062,8.901 0.484,0.356 0.993,0.711 1.545,0.933 4.687,1.893 9.404,1.885 14.115,0.099 0.555,-0.21 1.059,-0.581 1.546,-0.934 4.279,-3.092 4.529,-7.911 0.52,-11.334 -1.356,-1.157 -2.901,-2.092 -4.458,-3.199 0.48,-1.369 1.648,-2.121 2.459,-3.125 0.82,-1.016 1.748,-1.946 2.333,-2.588 0.736,-0.269 0.883,-0.14 1.068,0.058 0.819,0.88 0.555,2.649 1.848,2.921 1.101,0.231 2.362,-0.223 3.539,-0.446 1.05,-0.198 2.153,-0.287 3.106,-1.046 -0.526,-2.49 -1.687,-4.72 -3.079,-6.973 1.531,-1.602 3.384,-2.459 5.116,-3.491 0.883,-0.527 0.964,-0.953 0.296,-1.692 -1.052,-1.163 -2.148,-2.288 -3.216,-3.437 -0.573,-0.615 -1.208,-0.733 -1.937,-0.305 -1.559,0.917 -3.151,1.782 -4.66,2.774 -0.834,0.549 -1.474,0.521 -2.295,-0.003 -5.211,-3.321 -10.88,-3.62 -16.752,-2.422 -2.416,0.492 -4.571,1.524 -6.378,3.227 -3.901,3.678 -4.142,8.946 -0.583,12.946 1.052,1.181 2.289,2.143 3.665,2.924 0.943,0.536 1.888,1.064 3.12,1.758" /></g><g
           transform="translate(786.1045,388.6836)"
           id="g92"><path
             id="path94"
             style="fill:#03ac51;fill-opacity:1;fill-rule:nonzero;stroke:none"
             d="m 0,0 c 0.001,5.316 -0.015,10.633 0.01,15.949 0.008,1.739 0.176,1.904 1.846,1.939 1.813,0.039 3.627,0.018 5.44,-0.016 0.849,-0.017 1.317,-0.493 1.32,-1.366 C 8.624,13.485 8.627,10.465 8.634,7.444 8.635,6.72 8.616,5.993 8.651,5.27 c 0.06,-1.22 0.3,-1.501 1.501,-1.514 3.144,-0.034 6.287,-0.018 9.431,-0.021 1.209,-10e-4 2.419,-0.02 3.627,0.007 2.105,0.046 2.132,0.061 2.155,2.345 0.029,2.658 0.006,5.316 0.009,7.975 0.001,0.845 -0.004,1.692 0.024,2.537 0.024,0.662 0.311,1.212 1.035,1.222 2.172,0.033 4.346,0.021 6.518,-0.01 0.526,-0.007 0.904,-0.344 0.962,-0.889 0.065,-0.598 0.08,-1.202 0.08,-1.805 0.005,-10.149 0.004,-20.299 0.002,-30.448 0,-0.483 -0.006,-0.967 -0.03,-1.449 -0.035,-0.677 -0.356,-1.184 -1.066,-1.194 -2.173,-0.031 -4.348,-0.017 -6.522,0.008 -0.541,0.006 -0.906,0.341 -0.926,0.897 -0.048,1.327 -0.068,2.655 -0.075,3.983 -0.016,3.142 -0.012,6.283 -0.028,9.424 -0.005,0.858 -0.462,1.361 -1.326,1.361 -4.714,0.002 -9.429,-0.01 -14.143,-0.037 -0.92,-0.006 -1.222,-0.619 -1.224,-1.443 -0.008,-2.658 -0.012,-5.317 -0.023,-7.975 -0.007,-1.69 -0.01,-3.382 -0.04,-5.073 -0.013,-0.692 -0.401,-1.149 -1.1,-1.155 -2.174,-0.021 -4.348,-0.006 -6.522,0.024 -0.558,0.008 -0.869,0.388 -0.901,0.927 -0.048,0.844 -0.066,1.688 -0.067,2.533 C -0.005,-9.667 -0.001,-4.833 0,0" /></g><g
           transform="translate(478.4043,388.3115)"
           id="g96"><path
             id="path98"
             style="fill:#03ac51;fill-opacity:1;fill-rule:nonzero;stroke:none"
             d="m 0,0 c 0,-4.827 0.003,-9.654 -0.003,-14.48 0,-0.724 -0.02,-1.448 -0.065,-2.168 -0.035,-0.541 -0.346,-0.87 -0.896,-0.941 -0.239,-0.031 -0.481,-0.071 -0.72,-0.062 -2.154,0.083 -4.325,-0.264 -6.464,0.234 -0.993,2.059 -0.36,4.244 -0.456,6.367 -0.114,2.529 -0.013,5.067 -0.054,7.601 -0.02,1.178 -0.344,1.517 -1.519,1.524 -4.589,0.029 -9.177,0.028 -13.765,-0.002 -1.106,-0.008 -1.416,-0.365 -1.429,-1.617 -0.034,-3.499 -0.016,-6.999 -0.026,-10.498 -0.002,-0.844 -0.014,-1.688 -0.055,-2.531 -0.026,-0.518 -0.277,-0.982 -0.831,-0.989 -2.289,-0.035 -4.58,-0.035 -6.869,0.002 -0.553,0.009 -0.793,0.479 -0.827,0.996 -0.041,0.6 -0.053,1.205 -0.053,1.807 -0.004,10.015 -0.003,20.031 -0.002,30.047 0,0.603 -0.004,1.207 0.028,1.809 0.027,0.52 0.285,1.026 0.806,1.04 2.287,0.058 4.578,0.074 6.866,0.017 0.714,-0.017 0.919,-0.665 0.922,-1.312 0.011,-1.931 0.012,-3.862 0.017,-5.792 0.005,-1.81 -0.019,-3.62 0.024,-5.43 0.028,-1.187 0.314,-1.481 1.516,-1.493 3.38,-0.034 6.762,-0.02 10.143,-0.022 1.207,0 2.416,-0.022 3.622,0.021 1.173,0.042 1.421,0.292 1.439,1.572 0.036,2.654 0.018,5.31 0.021,7.965 0.001,0.603 -0.007,1.206 0.001,1.81 0.036,2.756 0.038,2.82 2.819,2.78 1.787,-0.026 3.952,0.754 5.268,-0.413 1.371,-1.215 0.474,-3.415 0.513,-5.173 C 0.062,8.448 0,4.223 0,0" /></g><g
           transform="translate(94.2344,384.9814)"
           id="g100"><path
             id="path102"
             style="fill:#03ac51;fill-opacity:1;fill-rule:nonzero;stroke:none"
             d="M 0,0 C 0.412,0.737 0.304,1.201 0.107,1.647 -1.339,4.94 -2.781,8.234 -4.256,11.515 -4.42,11.878 -4.63,12.383 -5.352,12.171 -7.016,8.289 -8.908,4.435 -10.427,0.065 -6.677,-0.109 -3.244,-0.046 0,0 m 15.958,-14.325 c -2.409,0 -4.931,0.004 -7.453,-0.002 -0.816,-0.002 -1.335,0.38 -1.667,1.122 -0.836,1.87 -1.719,3.718 -2.552,5.589 -0.369,0.829 -0.843,1.411 -1.856,1.408 -4.826,-0.017 -9.653,-0.018 -14.478,0.001 -1.004,0.004 -1.535,-0.551 -1.892,-1.373 -0.815,-1.879 -1.629,-3.759 -2.422,-5.647 -0.32,-0.761 -0.867,-1.103 -1.677,-1.101 -2.409,0.007 -4.817,0.003 -7.097,0.003 -0.66,0.726 -0.22,1.259 0.008,1.756 4.986,10.833 10.017,21.646 14.947,32.505 0.624,1.373 1.476,1.723 2.802,1.682 1.567,-0.049 3.142,-0.094 4.704,0.011 1.649,0.111 2.59,-0.426 3.322,-2.031 2.998,-6.577 6.167,-13.075 9.272,-19.601 1.864,-3.917 3.743,-7.826 5.572,-11.759 0.338,-0.727 1.001,-1.424 0.467,-2.563" /></g><g
           transform="translate(170.1875,383.5664)"
           id="g104"><path
             id="path106"
             style="fill:#03ac51;fill-opacity:1;fill-rule:nonzero;stroke:none"
             d="m 0,0 c -0.07,1.707 -0.084,3.145 -0.695,4.514 -1.249,2.798 -3.734,4.128 -7.1,3.728 -2.82,-0.334 -4.882,-2.206 -5.446,-5.002 -0.41,-2.037 -0.364,-4.094 0.108,-6.104 0.749,-3.189 3.605,-5.212 6.987,-5.073 3.178,0.13 5.526,2.334 5.997,5.676 C -0.032,-1.429 -0.036,-0.579 0,0 m -13.78,-10.144 c -0.16,-0.836 -0.311,-1.627 -0.483,-2.525 -2.126,-0.479 -4.291,-0.224 -6.443,-0.167 -0.527,0.014 -0.856,0.41 -0.907,0.94 -0.057,0.598 -0.075,1.204 -0.075,1.805 -0.004,10.139 -0.003,20.277 -0.002,30.415 0,0.483 -0.008,0.967 0.025,1.447 0.047,0.686 0.429,1.17 1.113,1.18 2.048,0.029 4.098,0.008 6.146,-0.041 0.542,-0.013 0.87,-0.447 0.89,-0.963 0.056,-1.445 0.055,-2.893 0.071,-4.34 0.023,-2.146 -0.051,-4.295 0.06,-6.332 1.249,-0.509 1.779,0.389 2.467,0.76 2.407,1.302 4.947,1.909 7.669,1.65 C 3.463,13.043 7.784,8.698 8.392,1.973 8.544,0.287 8.393,-1.385 8.131,-3.069 c -1.335,-8.605 -11.11,-13.206 -19.055,-8.665 -0.91,0.52 -1.589,1.478 -2.856,1.59" /></g><g
           transform="translate(880.0703,385.9346)"
           id="g108"><path
             id="path110"
             style="fill:#03ac51;fill-opacity:1;fill-rule:nonzero;stroke:none"
             d="m 0,0 c 0.481,0.795 0.428,1.408 0.233,1.97 -0.716,2.074 -2.107,3.465 -4.316,3.837 -2.363,0.398 -4.54,0.035 -6.2,-1.909 -0.636,-0.744 -1.044,-1.594 -1.111,-2.588 -0.044,-0.65 0.091,-1.283 0.843,-1.291 C -6.976,-0.022 -3.399,0 0,0 m 7.982,-8.107 c -1.073,-3.401 -3.245,-5.279 -5.985,-6.396 -5.034,-2.052 -10.148,-1.923 -15.146,0.197 -2.788,1.182 -4.764,3.309 -5.872,6.112 -1.528,3.859 -1.523,7.816 0.006,11.653 1.477,3.706 4.396,6.014 8.143,7.178 3.679,1.141 7.391,0.994 11.027,-0.302 C 4.78,8.688 7.461,5.386 8.293,0.581 8.478,-0.484 8.54,-1.577 8.578,-2.66 8.627,-4.003 8.323,-4.307 6.876,-4.312 2.047,-4.334 -2.781,-4.32 -7.61,-4.325 c -0.966,-10e-4 -1.933,0.008 -2.896,-0.042 -0.833,-0.044 -1.178,-0.631 -0.97,-1.511 0.588,-2.483 2.166,-3.966 4.622,-4.534 2.405,-0.558 4.694,-0.335 6.093,1.92 0.812,1.305 1.722,1.444 3.002,1.23 1.775,-0.297 3.561,-0.528 5.741,-0.845" /></g><g
           transform="translate(225.1357,383.6182)"
           id="g112"><path
             id="path114"
             style="fill:#03ac51;fill-opacity:1;fill-rule:nonzero;stroke:none"
             d="m 0,0 c 0.017,-4.788 2.995,-7.904 7.534,-7.881 4.457,0.023 7.484,3.251 7.492,7.991 C 15.035,4.76 11.89,8.022 7.428,7.995 2.921,7.968 -0.017,4.805 0,0 m 7.607,-13.608 c -3.014,0.092 -5.838,0.636 -8.512,1.848 -4.761,2.157 -7.168,5.977 -7.475,11.075 -0.289,4.824 1.674,8.704 5.636,11.465 5.457,3.803 14.34,3.844 19.947,0.296 8.11,-5.132 8.079,-16.11 0.847,-21.401 -3.153,-2.309 -6.718,-3.149 -10.443,-3.283" /></g><g
           transform="translate(538.4751,385.9355)"
           id="g116"><path
             id="path118"
             style="fill:#03ac51;fill-opacity:1;fill-rule:nonzero;stroke:none"
             d="M 0,0 C 0.609,1.774 -0.102,3.006 -1.067,4.11 -2.052,5.236 -3.35,5.784 -4.851,5.911 -8.336,6.206 -11.004,4.382 -11.482,1.334 -11.5,1.217 -11.496,1.096 -11.492,0.976 -11.474,0.441 -11.221,0.017 -10.678,0.013 -7.102,-0.013 -3.525,0 0,0 m 8.038,-8.131 c -1.688,-3.99 -4.421,-6.035 -7.935,-7.05 -3.803,-1.098 -7.666,-0.995 -11.448,0.125 -4.716,1.398 -7.526,4.66 -8.545,9.411 -0.484,2.255 -0.458,4.576 0.07,6.835 1.108,4.748 4.073,7.883 8.666,9.382 3.793,1.238 7.625,1.077 11.379,-0.291 C 4.56,8.701 7.11,5.556 8.118,1.109 8.277,0.406 8.335,-0.322 8.42,-1.041 8.802,-4.268 8.777,-4.312 5.552,-4.32 0.357,-4.336 -4.837,-4.328 -10.032,-4.329 c -1.451,-0.001 -1.908,-0.433 -1.379,-2.092 0.774,-2.424 2.574,-3.727 5.03,-4.12 2.304,-0.367 4.392,0.088 5.694,2.201 0.605,0.982 1.261,1.318 2.357,1.137 2.014,-0.333 4.04,-0.594 6.368,-0.928" /></g><g
           transform="translate(1010.1221,390.4043)"
           id="g120"><path
             id="path122"
             style="fill:#03ac51;fill-opacity:1;fill-rule:nonzero;stroke:none"
             d="m 0,0 c -1.788,-0.329 -3.212,-0.576 -4.63,-0.856 -1.603,-0.317 -3.071,-0.415 -4.083,1.297 -0.439,0.744 -1.385,0.956 -2.206,1.148 -2.29,0.534 -4.562,0.482 -6.755,-0.45 -0.571,-0.244 -0.994,-0.688 -0.976,-1.384 0.017,-0.684 0.412,-1.121 1.016,-1.343 0.792,-0.291 1.591,-0.584 2.41,-0.772 2.238,-0.515 4.49,-0.961 6.73,-1.461 2.125,-0.474 4.19,-1.1 6.16,-2.078 4.431,-2.201 4.168,-7.629 1.81,-10.187 -1.52,-1.647 -3.313,-2.834 -5.463,-3.403 -4.657,-1.233 -9.333,-1.255 -13.962,0.117 -3.006,0.892 -5.427,2.603 -6.922,5.456 -0.637,1.216 -0.404,1.695 1.05,1.902 1.316,0.187 2.66,0.212 3.96,0.472 1.434,0.287 2.536,0.276 3.283,-1.311 0.592,-1.256 1.88,-1.816 3.211,-2.163 2.174,-0.564 4.321,-0.463 6.411,0.329 0.539,0.205 1.046,0.597 1.455,1.014 0.72,0.732 0.502,1.981 -0.377,2.487 -0.849,0.491 -1.789,0.68 -2.741,0.887 -3.068,0.667 -6.124,1.384 -9.173,2.13 -1.415,0.346 -2.75,0.919 -3.92,1.816 -3.33,2.554 -3.654,6.786 -0.766,9.822 1.382,1.451 3.1,2.321 5.01,2.763 4.192,0.973 8.418,0.947 12.59,-0.047 C -3.656,5.416 -1.191,3.625 0,0" /></g><g
           transform="translate(308.8398,370.8496)"
           id="g124"><path
             id="path126"
             style="fill:#03ac51;fill-opacity:1;fill-rule:nonzero;stroke:none"
             d="M 0,0 C -0.135,0.906 -0.255,1.718 -0.387,2.61 -0.766,2.542 -1.192,2.593 -1.422,2.404 c -2.013,-1.653 -4.332,-2.592 -6.87,-3.046 -2.445,-0.435 -4.823,-0.102 -7.108,0.784 -2.958,1.147 -4.642,3.348 -5.063,6.497 -0.064,0.476 -0.106,0.961 -0.108,1.442 -0.016,5.309 -0.04,10.617 -0.021,15.926 0.006,1.628 0.22,1.858 1.919,1.824 7.391,-0.146 6.012,1.316 6.155,-5.925 0.05,-2.533 0.009,-5.067 0.02,-7.601 0.004,-0.844 0.005,-1.691 0.066,-2.533 0.258,-3.584 1.613,-5.069 4.717,-5.205 3.505,-0.153 6.179,1.73 6.65,4.807 0.2,1.305 0.19,2.647 0.202,3.973 0.029,3.378 -0.003,6.757 0.027,10.134 0.02,2.315 0.047,2.328 2.504,2.363 1.448,0.02 2.897,-0.013 4.346,-0.009 0.922,0.003 1.257,-0.528 1.283,-1.356 C 7.312,23.997 7.319,23.514 7.319,23.031 7.32,16.154 7.32,9.277 7.317,2.399 7.317,1.918 7.296,1.436 7.273,0.954 7.24,0.251 6.871,-0.176 6.163,-0.171 4.127,-0.159 2.079,-0.378 0,0" /></g><g
           transform="translate(810.4707,591.0342)"
           id="g128"><path
             id="path130"
             style="fill:#f49421;fill-opacity:1;fill-rule:nonzero;stroke:none"
             d="m 0,0 c -0.795,-4.332 -1.503,-8.241 -2.232,-12.146 -0.332,-1.778 -0.688,-3.553 -1.069,-5.321 -0.376,-1.749 -0.472,-1.879 -2.07,-1.886 -5.315,-0.02 -10.629,-0.006 -15.943,0.032 -1.39,0.009 -1.759,0.458 -1.481,1.789 1.136,5.429 2.318,10.848 3.466,16.274 0.176,0.833 0.633,1.257 1.475,1.257 C -12.072,0.001 -6.29,0 0,0" /></g><g
           transform="translate(358.1914,396.8984)"
           id="g132"><path
             id="path134"
             style="fill:#03ac51;fill-opacity:1;fill-rule:nonzero;stroke:none"
             d="m 0,0 c 0.529,1.276 0.274,2.491 0.326,3.678 0.028,0.636 0.12,1.271 0.716,1.551 2.36,1.113 4.528,2.683 7.458,3.3 0,-2.62 10e-4,-5.016 0,-7.413 0,-0.893 0.472,-1.296 1.34,-1.301 0.967,-0.004 1.933,-0.014 2.9,-0.035 0.889,-0.018 1.29,-0.524 1.302,-1.375 0.012,-0.844 0.037,-1.69 0.003,-2.534 C 13.99,-5.48 13.713,-5.735 12.274,-5.802 11.551,-5.836 10.824,-5.796 10.1,-5.829 8.794,-5.89 8.515,-6.098 8.508,-7.245 8.484,-10.987 8.463,-14.73 8.532,-18.473 c 0.039,-2.085 0.896,-2.742 3.015,-2.546 0.358,0.034 0.703,0.179 1.06,0.233 0.349,0.052 0.706,0.054 1.028,0.075 0.175,-0.235 0.416,-0.411 0.441,-0.613 0.677,-5.341 1.202,-4.613 -4.188,-5.473 -1.93,-0.307 -3.866,-0.015 -5.711,0.645 -2.122,0.759 -3.403,2.269 -3.637,4.528 -0.149,1.438 -0.185,2.892 -0.199,4.339 -0.031,3.26 -0.002,6.519 -0.032,9.779 -0.013,1.36 -0.128,1.466 -1.37,1.658 -0.475,0.075 -0.963,0.056 -1.442,0.107 -0.572,0.06 -0.843,0.474 -0.878,0.973 -0.069,0.961 -0.086,1.928 -0.072,2.891 0.02,1.28 0.313,1.715 1.729,1.69 C -1.137,-0.196 -0.548,-0.063 0,0" /></g><g
           transform="translate(594.2227,396.4678)"
           id="g136"><path
             id="path138"
             style="fill:#03ac51;fill-opacity:1;fill-rule:nonzero;stroke:none"
             d="m 0,0 c 0.138,-0.79 0.261,-1.496 0.384,-2.2 0.229,-0.013 0.472,-0.092 0.653,-0.019 0.211,0.085 0.382,0.289 0.544,0.466 2.4,2.599 5.311,3.072 8.601,2.127 2.18,-0.626 2.353,-0.896 1.513,-2.967 -0.317,-0.78 -0.663,-1.55 -1.011,-2.316 -0.62,-1.362 -0.624,-1.36 -2.148,-1 -4.722,1.114 -7.124,-0.551 -7.474,-5.472 -0.257,-3.6 -0.224,-7.223 -0.256,-10.838 -0.035,-3.813 0.181,-3.638 -3.466,-3.595 -5.462,0.062 -4.761,-0.782 -4.791,4.783 -0.032,5.905 -0.01,11.81 -0.004,17.715 0.001,0.842 0.02,1.686 0.076,2.526 0.035,0.533 0.376,0.918 0.905,0.936 C -4.322,0.22 -2.162,0.428 0,0" /></g><g
           transform="translate(936.5527,394.1787)"
           id="g140"><path
             id="path142"
             style="fill:#03ac51;fill-opacity:1;fill-rule:nonzero;stroke:none"
             d="M 0,0 C 0.709,-0.001 0.984,0.619 1.401,1.012 4.257,3.703 7.483,3.496 10.825,2.205 11.437,1.969 11.669,1.382 11.401,0.71 10.957,-0.407 10.534,-1.535 10.049,-2.635 9.458,-3.975 9.409,-4.047 7.888,-3.587 3.45,-2.246 0.791,-4.277 0.489,-8.736 c -0.252,-3.72 -0.283,-7.457 -0.324,-11.188 -0.044,-3.915 0.112,-3.637 -3.448,-3.6 -5.535,0.057 -4.791,-0.769 -4.825,4.73 -0.038,5.9 -0.009,11.801 -0.008,17.7 0,0.723 -0.02,1.447 0.019,2.167 0.062,1.128 0.345,1.388 1.6,1.429 1.084,0.036 2.169,0.025 3.253,0.016 C -0.776,2.495 -0.776,2.49 0,0" /></g><g
           transform="translate(635.7119,707.4829)"
           id="g144"><path
             id="path146"
             style="fill:#f49421;fill-opacity:1;fill-rule:nonzero;stroke:none"
             d="M 0,0 C 0,0 14.301,5.746 28.25,0 Z" /></g><g
           transform="translate(734.6719,707.4829)"
           id="g148"><path
             id="path150"
             style="fill:#f49421;fill-opacity:1;fill-rule:nonzero;stroke:none"
             d="M 0,0 C 0,0 14.11,5.746 27.872,0 Z" /></g><g
           transform="translate(876.0889,707.4829)"
           id="g152"><path
             id="path154"
             style="fill:#f49421;fill-opacity:1;fill-rule:nonzero;stroke:none"
             d="M 0,0 C 0,0 13.999,5.746 27.653,0 Z" /></g></g></g></g></svg>